<?xml version="1.0" encoding="UTF-8"?>
<svg version="1.1" id="Layer_1" xmlns="http://www.w3.org/2000/svg" xmlns:xlink="http://www.w3.org/1999/xlink" x="0px" y="0px"
	 viewBox="0 0 187 40" style="enable-background:new 0 0 187 40;" xml:space="preserve">
  <defs>
    <style>
      .cls-1 {
        fill: #394149;
      }

      .cls-1, .cls-2 {
        stroke-width: 0px;
      }

      .cls-2 {
        fill: #ffe68c;
      }
    </style>
  </defs>
  <path class="cls-1" d="m50.24,26.69c-.2,0-.2-.1-.2-.2v-15.8c0-.1,0-.2.2-.2h2.6c.1,0,.1.1.1.2v13.3h7.3c.1,0,.2.1.2.2l-.4,2.3c0,.2-.1.2-.2.2,0,0-9.6,0-9.6,0Z"/>
  <path class="cls-1" d="m72.44,23.99c0,1.3.1,2,.1,2.5,0,.1,0,.2-.2.2h-2.3q-.2,0-.2-.1c-.1-.2-.1-.6-.2-.9-1.1,1-2.3,1.3-3.4,1.3-2.3,0-4.1-1.3-4.1-4.7v-7.5c0-.1,0-.2.2-.2h2.5c.1,0,.2,0,.2.2v7.2c0,1.5.7,2.5,2.1,2.5.9,0,1.6-.3,2.2-.9v-8.8c0-.1,0-.2.2-.2h2.6c.1,0,.2,0,.2.2v9.2h.1Z"/>
  <path class="cls-1" d="m75.54,17.39c0-.8,0-2.2-.1-2.7,0-.1,0-.2.2-.2h2.2q.2,0,.3.2c.1.2.1.5.2.9,1.1-.9,2.2-1.4,3.6-1.4,1.9,0,4.1.9,4.1,4.9v7.3c0,.2-.1.2-.2.2h-2.6c-.1,0-.2-.1-.2-.2v-7c0-1.6-.7-2.6-2.1-2.6-1,0-1.8.4-2.4,1v8.6c0,.1-.1.2-.2.2h-2.6c-.1,0-.2-.1-.2-.2v-9h0Z"/>
  <path class="cls-1" d="m98.24,24.19v1.7c-2,.9-3.5,1.1-5.1,1.1-2.7,0-4.8-1.3-4.8-4s2.3-3.9,5.6-3.9h1.5v-.3c0-.6-.3-1.9-2.5-1.9-1.2,0-2.3.2-3.2.7-.1,0-.2,0-.2-.1v-2.1c0-.1,0-.2.1-.2,1.1-.5,2.4-.7,3.7-.7,3.4,0,4.9,2.1,4.9,4.9v4.8Zm-2.9-2.9c-.4,0-.8-.1-1.4-.1-1.9,0-2.8.6-2.8,1.7,0,.9.6,1.7,2.4,1.7.6,0,1.2-.1,1.8-.3v-3Z"/>
  <path class="cls-1" d="m108.74,10.59c0-.1,0-.2.2-.2h2.6c.1,0,.2,0,.2.2v11.4c0,.8,0,1.7-.2,2.3-.6,2.6-2.4,3.7-5,3.7-.4,0-.8,0-1.1-.1-.1,0-.2-.1-.2-.3v-2.3c0-.1,0-.2.2-.1h.8c1.5,0,2.5-.6,2.5-3v-11.6Z"/>
  <path class="cls-1" d="m119.64,26.69c-.1,0-.2,0-.2-.2v-1.7c0-.1,0-.2.1-.3l8.6-11.4h-8.3c-.1,0-.2,0-.2-.2l.4-2.3c0-.1.1-.2.2-.2h11.5q.1,0,.1.1v1.8c0,.1,0,.2-.1.3l-8.4,11.3h8.8c.1,0,.2.1.1.2l-.4,2.3c0,.1-.1.2-.2.2h-12v.1Z"/>
  <path class="cls-1" d="m137.24,26.49c0,.1,0,.2-.2.2h-2.6c-.1,0-.2-.1-.2-.2V9.29c0-.1,0-.2.2-.2h2.6c.1,0,.2,0,.2.2v6.1c.9-.7,2-1.1,3.4-1.1,1.9,0,4.1.9,4.1,4.9v7.3c0,.2-.1.2-.2.2h-2.6c-.1,0-.2-.1-.2-.2v-7c0-1.7-.7-2.6-2.1-2.6-.9,0-1.7.3-2.4.9v8.7Z"/>
  <path class="cls-1" d="m156.94,24.19v1.7c-2,.9-3.5,1.1-5.1,1.1-2.7,0-4.8-1.3-4.8-4s2.3-3.9,5.6-3.9h1.5v-.3c0-.6-.3-1.9-2.5-1.9-1.2,0-2.3.2-3.2.7-.1,0-.2,0-.2-.1v-2.1c0-.1,0-.2.1-.2,1.1-.5,2.4-.7,3.8-.7,3.4,0,4.9,2.1,4.9,4.9v4.8h-.1Zm-2.9-2.9c-.4,0-.8-.1-1.4-.1-1.9,0-2.8.6-2.8,1.7,0,.9.6,1.7,2.4,1.7.6,0,1.2-.1,1.8-.3v-3Z"/>
  <path class="cls-1" d="m171.04,20.49c0,3.8-2.4,6.4-5.9,6.4-4.1,0-5.9-3.2-5.9-6.3,0-3.5,2.3-6.3,6-6.3s5.8,2.9,5.8,6.2Zm-8.8.1c0,2.3,1.1,3.8,3,3.8,1.5,0,2.8-1.3,2.8-3.8,0-2-.9-3.8-3-3.8-1.6,0-2.8,1.4-2.8,3.8Z"/>
  <path class="cls-2" d="m18.54.79c-.2-.5.3-1,.7-.7,4.7,3,17.2,11.2,10.3,24.5-6.8,11-22.1,8.9-28.7,6-.7-.3-.5-1.3.2-1.4,7.6-.7,27.4-4.7,17.5-28.4Z"/>
</svg>