<?xml version="1.0" encoding="utf-8"?>
<!-- Generator: Adobe Illustrator 28.0.0, SVG Export Plug-In . SVG Version: 6.00 Build 0)  -->
<svg version="1.1" id="Layer_1" xmlns="http://www.w3.org/2000/svg" xmlns:xlink="http://www.w3.org/1999/xlink" x="0px" y="0px"
	 viewBox="0 0 187 40" style="enable-background:new 0 0 187 40;" xml:space="preserve">
<style type="text/css">
	.st0{display:none;}
	.st1{display:inline;}
	.st2{fill:#394149;}
	.st3{fill:#006B6A;}
	.st4{fill:#FFE68C;}
</style>
<g id="Layer_1_00000060017708334135626190000012986493188639415964_" class="st0">
	<g id="Logo" class="st1">
		<path id="Vector" class="st2" d="M30.2,17.8c-0.5,0.5-0.9,1.1-1.1,1.8c-0.2,0.7-0.3,1.4-0.3,2.1l0,0c0.1,0.8,0,1.7-0.3,2.5
			s-0.7,1.5-1.3,2.1c-0.6,0.6-1.3,1.1-2.1,1.3c-0.8,0.3-1.6,0.4-2.5,0.3l0,0c-1-0.1-2,0.1-2.9,0.6s-1.6,1.3-2,2.2
			c-0.4,0.9-0.6,1.9-0.4,2.9s0.7,1.9,1.4,2.6c0.7,0.7,1.6,1.2,2.6,1.4s2,0,2.9-0.4s1.7-1.1,2.2-2s0.7-1.9,0.6-2.9l0,0
			c-0.1-0.8,0-1.7,0.3-2.5s0.7-1.5,1.3-2.1c0.6-0.6,1.3-1.1,2.1-1.3c0.8-0.3,1.6-0.4,2.5-0.3l0,0c0.8,0.1,1.6-0.1,2.4-0.4
			c0.8-0.3,1.4-0.8,1.9-1.5s0.8-1.4,1-2.2c0.1-0.8,0-1.6-0.2-2.4c-0.3-0.8-0.8-1.5-1.4-2c-0.6-0.5-1.4-0.9-2.2-1.1s-1.6-0.1-2.4,0.1
			C31.5,16.8,30.8,17.2,30.2,17.8L30.2,17.8z"/>
		<path id="Vector_2" class="st3" d="M20.4,24.8L20.4,24.8c0.7,0,1.4,0,2.1-0.3c0.7-0.2,1.3-0.6,1.8-1.1s0.9-1.1,1.1-1.8
			c0.2-0.7,0.3-1.4,0.3-2.1l0,0c-0.1-0.8,0-1.7,0.3-2.5s0.7-1.5,1.3-2.1c0.6-0.6,1.3-1.1,2.1-1.3c0.8-0.3,1.6-0.4,2.5-0.3l0,0
			c1,0.1,2-0.1,2.9-0.6s1.6-1.3,2-2.2s0.6-1.9,0.4-2.9c-0.2-1-0.6-1.9-1.4-2.6c-0.7-0.7-1.6-1.2-2.6-1.4s-2,0-2.9,0.4
			s-1.7,1.1-2.2,2s-0.7,1.9-0.6,2.9l0,0c0.1,0.8,0,1.7-0.3,2.5s-0.7,1.5-1.3,2.1c-0.6,0.6-1.3,1.1-2.1,1.3c-0.8,0.3-1.6,0.4-2.5,0.3
			l0,0c-0.7-0.1-1.4,0-2.1,0.3c-0.7,0.2-1.3,0.6-1.8,1.1s-0.9,1.1-1.1,1.8C16.1,19,16,19.7,16,20.4l0,0c0.1,0.8,0,1.7-0.3,2.5
			S15,24.4,14.4,25s-1.3,1.1-2.1,1.3c-0.8,0.3-1.6,0.4-2.5,0.3l0,0c-1-0.1-2,0.1-2.9,0.6s-1.6,1.3-2,2.2c-0.4,0.9-0.6,1.9-0.4,2.9
			s0.6,1.9,1.4,2.6c0.7,0.7,1.6,1.2,2.6,1.4s2,0,2.9-0.4c0.9-0.4,1.7-1.1,2.2-2s0.7-1.9,0.6-2.9l0,0c-0.1-0.8,0-1.7,0.3-2.5
			s0.7-1.5,1.3-2.1c0.6-0.6,1.3-1.1,2.1-1.3S19.5,24.8,20.4,24.8z"/>
		<path id="Vector_3" class="st2" d="M11.5,22.2c0.5-0.5,0.9-1.1,1.1-1.8c0.2-0.7,0.3-1.4,0.3-2.1l0,0c-0.1-0.8,0-1.7,0.3-2.5
			c0.3-0.8,0.7-1.5,1.3-2.1s1.3-1.1,2.1-1.3c0.8-0.3,1.6-0.4,2.5-0.3l0,0c1,0.1,2-0.1,2.9-0.6s1.6-1.3,2-2.2s0.6-1.9,0.4-2.9
			S23.8,4.5,23,3.8c-0.7-0.7-1.6-1.2-2.6-1.4s-2,0-2.9,0.4s-1.7,1.1-2.2,2s-0.7,1.9-0.6,2.9l0,0c0.1,0.8,0,1.7-0.3,2.5
			s-0.7,1.5-1.3,2.1s-1.3,1.1-2.1,1.3c-0.8,0.3-1.6,0.4-2.5,0.3l0,0c-0.8-0.1-1.6,0.1-2.4,0.4c-0.8,0.3-1.4,0.8-1.9,1.5
			c-0.5,0.7-0.8,1.4-1,2.2c-0.1,0.8,0,1.6,0.2,2.4c0.3,0.8,0.8,1.5,1.4,2s1.4,0.9,2.2,1.1s1.6,0.1,2.4-0.1
			C10.2,23.2,10.9,22.8,11.5,22.2L11.5,22.2z"/>
		<path id="Vector_4" class="st2" d="M52.8,8.9h4v19.3h-4V8.9z"/>
		<path id="Vector_5" class="st2" d="M59,21.5c0-1.4,0.4-2.7,1.2-3.9c0.8-1.2,1.9-2.1,3.1-2.6c1.3-0.5,2.7-0.7,4-0.4
			c1.4,0.3,2.6,0.9,3.6,1.9s1.7,2.2,1.9,3.6c0.3,1.4,0.1,2.8-0.4,4c-0.5,1.3-1.4,2.4-2.6,3.1c-1.2,0.8-2.5,1.2-3.9,1.2
			c-0.9,0-1.8-0.2-2.7-0.5c-0.9-0.3-1.6-0.9-2.3-1.5s-1.2-1.4-1.5-2.3C59.1,23.4,59,22.5,59,21.5z M69,21.5c0-0.6-0.2-1.2-0.6-1.7
			c-0.3-0.5-0.8-0.9-1.4-1.1s-1.2-0.3-1.7-0.1c-0.6,0.1-1.1,0.4-1.5,0.9c-0.4,0.4-0.7,1-0.8,1.6s0,1.2,0.2,1.7
			c0.2,0.6,0.6,1,1.1,1.3s1.1,0.5,1.7,0.5c0.4,0,0.8-0.1,1.2-0.2c0.4-0.2,0.7-0.4,1-0.7c0.3-0.3,0.5-0.6,0.7-1
			C69,22.4,69,22,69,21.5z"/>
		<path id="Vector_6" class="st2" d="M88.7,14.9v12.5c0,4.4-3.5,6.3-7,6.3c-1.2,0.1-2.5-0.2-3.6-0.7c-1.1-0.6-2-1.4-2.7-2.5l3.4-2
			c0.3,0.6,0.7,1,1.2,1.3s1.2,0.4,1.8,0.4c0.4,0.1,0.8,0,1.2-0.1c0.4-0.1,0.7-0.3,1-0.6c0.3-0.3,0.5-0.6,0.6-1s0.2-0.8,0.2-1.2v-1.2
			c-0.5,0.6-1.1,1-1.7,1.3C82.5,27.9,81.8,28,81,28c-1.7-0.1-3.4-0.8-4.6-2s-1.9-2.9-1.9-4.7s0.7-3.4,1.9-4.7s2.9-2,4.6-2
			c0.7,0,1.5,0.1,2.1,0.4c0.7,0.3,1.3,0.7,1.7,1.3V15L88.7,14.9z M84.9,21.3c0-0.6-0.1-1.3-0.5-1.8c-0.3-0.5-0.8-1-1.4-1.2
			c-0.6-0.3-1.2-0.3-1.9-0.2c-0.6,0.1-1.2,0.4-1.7,0.8s-0.8,1-0.9,1.6s-0.1,1.3,0.2,1.9c0.2,0.6,0.6,1.1,1.2,1.5
			c0.5,0.4,1.2,0.5,1.8,0.5c0.4,0,0.8,0,1.2-0.2c0.4-0.1,0.8-0.4,1.1-0.7c0.3-0.3,0.5-0.6,0.7-1C84.8,22.1,84.9,21.7,84.9,21.3z"/>
		<path id="Vector_7" class="st2" d="M91,21.5c0-1.4,0.4-2.7,1.2-3.9c0.8-1.2,1.9-2.1,3.1-2.6c1.3-0.5,2.7-0.7,4-0.4
			c1.4,0.3,2.6,0.9,3.6,1.9s1.7,2.2,1.9,3.6c0.3,1.4,0.1,2.8-0.4,4c-0.5,1.3-1.4,2.4-2.6,3.1c-1.2,0.8-2.5,1.2-3.9,1.2
			c-0.9,0-1.8-0.2-2.7-0.5c-0.9-0.3-1.6-0.9-2.3-1.5c-0.7-0.6-1.2-1.4-1.5-2.3C91.1,23.4,91,22.5,91,21.5z M101,21.5
			c0-0.6-0.2-1.2-0.6-1.7c-0.3-0.5-0.8-0.9-1.4-1.1s-1.2-0.3-1.7-0.1c-0.6,0.1-1.1,0.4-1.5,0.9c-0.4,0.4-0.7,1-0.8,1.6
			c-0.1,0.6,0,1.2,0.2,1.7c0.2,0.6,0.6,1,1.1,1.3s1.1,0.5,1.7,0.5c0.4,0,0.8-0.1,1.2-0.2c0.4-0.2,0.7-0.4,1-0.7
			c0.3-0.3,0.5-0.6,0.6-1C101,22.4,101,22,101,21.5z"/>
		<path id="Vector_8" class="st2" d="M106.8,11.4c0-0.5,0.1-0.9,0.4-1.3c0.3-0.4,0.6-0.7,1.1-0.9c0.4-0.2,0.9-0.2,1.4-0.1
			c0.5,0.1,0.9,0.3,1.2,0.7c0.3,0.3,0.6,0.8,0.7,1.2c0.1,0.5,0,0.9-0.1,1.4c-0.2,0.4-0.5,0.8-0.9,1.1s-0.8,0.4-1.3,0.4
			c-0.6,0-1.2-0.3-1.7-0.7C107.1,12.6,106.8,12,106.8,11.4z M107.2,14.9h4v13.2h-4V14.9z"/>
		<path id="Vector_9" class="st2" d="M128.3,21.5c0,0.9-0.1,1.7-0.4,2.6c-0.3,0.8-0.7,1.6-1.3,2.2c-0.6,0.6-1.3,1.2-2.1,1.5
			c-0.8,0.4-1.6,0.6-2.5,0.6c-0.7,0-1.5-0.1-2.1-0.4c-0.7-0.3-1.3-0.7-1.8-1.2v6.5h-4V14.9h4v1.2c0.5-0.5,1.1-1,1.8-1.2
			c0.7-0.3,1.4-0.4,2.1-0.4c0.9,0,1.7,0.3,2.5,0.6c0.8,0.4,1.5,0.9,2.1,1.5s1,1.4,1.3,2.2C128.2,19.8,128.3,20.7,128.3,21.5z
			 M124.3,21.5c0-0.6-0.2-1.2-0.6-1.7s-0.8-0.9-1.4-1.1s-1.2-0.3-1.8-0.1c-0.6,0.1-1.2,0.4-1.6,0.9c-0.4,0.4-0.7,1-0.8,1.6
			c-0.1,0.6,0,1.2,0.2,1.8c0.2,0.6,0.6,1.1,1.2,1.4c0.5,0.3,1.1,0.5,1.7,0.5c0.4,0,0.8-0.1,1.2-0.2c0.4-0.2,0.8-0.4,1-0.7
			c0.3-0.3,0.5-0.7,0.7-1.1C124.3,22.4,124.3,22,124.3,21.5z"/>
		<path id="Vector_10" class="st2" d="M140.5,24.2c0,3-2.6,4.3-5.5,4.3c-1.2,0.1-2.3-0.1-3.3-0.7s-1.8-1.4-2.4-2.4l3.4-2
			c0.1,0.5,0.4,0.9,0.8,1.2c0.4,0.3,0.9,0.4,1.4,0.4c0.9,0,1.4-0.3,1.4-0.8c0-1.5-6.5-0.7-6.5-5.3c0-2.9,2.4-4.3,5.2-4.3
			c1,0,2.1,0.2,3,0.7s1.7,1.2,2.2,2.1l-3.4,1.8c-0.1-0.3-0.4-0.6-0.7-0.8c-0.3-0.2-0.7-0.3-1.1-0.3c-0.7,0-1.1,0.3-1.1,0.7
			C134,20.3,140.5,19.3,140.5,24.2z"/>
		<path id="Vector_11" class="st2" d="M155,14.9v13.2h-4v-1.2c-0.5,0.5-1,1-1.7,1.3s-1.4,0.4-2.1,0.4c-2.7,0-4.9-1.9-4.9-5.5V15h4
			v7.5c0,0.3,0,0.6,0.1,0.9s0.3,0.6,0.5,0.8c0.2,0.2,0.5,0.4,0.8,0.5s0.6,0.2,0.9,0.1c1.5,0,2.5-0.8,2.5-2.7v-7.2L155,14.9z"/>
		<path id="Vector_12" class="st2" d="M177.7,20v8.1h-4v-7.8c0-1.3-0.6-2.2-1.9-2.2c-1.3,0-2.1,0.9-2.1,2.5V28h-4v-7.8
			c0-1.3-0.6-2.2-1.9-2.2c-1.3,0-2.1,0.9-2.1,2.5v7.4h-4v-13h4v1.2c0.4-0.5,0.9-1,1.6-1.2c0.6-0.3,1.3-0.4,2-0.3
			c0.7,0,1.4,0.1,2,0.4c0.6,0.3,1.1,0.8,1.5,1.3c0.4-0.6,1-1.1,1.7-1.4c0.7-0.3,1.4-0.4,2.1-0.4C175.7,14.6,177.7,16.7,177.7,20z"/>
		<path id="Vector_13" class="st2" d="M181,14.9c1.6,0,2.9-1.3,2.9-2.9s-1.3-2.9-2.9-2.9s-2.9,1.3-2.9,2.9
			C178.1,13.5,179.4,14.9,181,14.9z"/>
	</g>
</g>
<path class="st2" d="M53.4,28.1c-0.2,0-0.2-0.1-0.2-0.2V12.1c0-0.1,0-0.2,0.2-0.2H56c0.1,0,0.1,0.1,0.1,0.2v13.3h7.3
	c0.1,0,0.2,0.1,0.2,0.2l-0.4,2.3c0,0.2-0.1,0.2-0.2,0.2H53.4z"/>
<path class="st2" d="M75.6,25.4c0,1.3,0.1,2,0.1,2.5c0,0.1,0,0.2-0.2,0.2h-2.3c-0.2,0-0.2,0-0.2-0.1c-0.1-0.2-0.1-0.6-0.2-0.9
	c-1.1,1-2.3,1.3-3.4,1.3c-2.3,0-4.1-1.3-4.1-4.7v-7.5c0-0.1,0-0.2,0.2-0.2H68c0.1,0,0.2,0,0.2,0.2v7.2c0,1.5,0.7,2.5,2.1,2.5
	c0.9,0,1.6-0.3,2.2-0.9v-8.8c0-0.1,0-0.2,0.2-0.2h2.6c0.1,0,0.2,0,0.2,0.2V25.4z"/>
<path class="st2" d="M78.7,18.8c0-0.8,0-2.2-0.1-2.7c0-0.1,0-0.2,0.2-0.2H81c0.2,0,0.2,0,0.3,0.2c0.1,0.2,0.1,0.5,0.2,0.9
	c1.1-0.9,2.2-1.4,3.6-1.4c1.9,0,4.1,0.9,4.1,4.9v7.3c0,0.2-0.1,0.2-0.2,0.2h-2.6c-0.1,0-0.2-0.1-0.2-0.2v-7c0-1.6-0.7-2.6-2.1-2.6
	c-1,0-1.8,0.4-2.4,1v8.6c0,0.1-0.1,0.2-0.2,0.2h-2.6c-0.1,0-0.2-0.1-0.2-0.2V18.8z"/>
<path class="st2" d="M101.4,25.6c0,0.5,0,1,0,1.6c0,0,0,0.1,0,0.1c-2,0.9-3.5,1.1-5.1,1.1c-2.7,0-4.8-1.3-4.8-4
	c0-2.6,2.3-3.9,5.6-3.9c0.7,0,1.3,0,1.5,0v-0.3c0-0.6-0.3-1.9-2.5-1.9c-1.2,0-2.3,0.2-3.2,0.7c-0.1,0-0.2,0-0.2-0.1v-2.1
	c0-0.1,0-0.2,0.1-0.2c1.1-0.5,2.4-0.7,3.7-0.7c3.4,0,4.9,2.1,4.9,4.9V25.6z M98.5,22.7c-0.4,0-0.8-0.1-1.4-0.1
	c-1.9,0-2.8,0.6-2.8,1.7c0,0.9,0.6,1.7,2.4,1.7c0.6,0,1.2-0.1,1.8-0.3V22.7z"/>
<path class="st2" d="M111.9,12c0-0.1,0-0.2,0.2-0.2h2.6c0.1,0,0.2,0,0.2,0.2v11.4c0,0.8,0,1.7-0.2,2.3c-0.6,2.6-2.4,3.7-5,3.7
	c-0.4,0-0.8,0-1.1-0.1c-0.1,0-0.2-0.1-0.2-0.3v-2.3c0-0.1,0-0.2,0.2-0.1c0.3,0,0.5,0,0.8,0c1.5,0,2.5-0.6,2.5-3V12z"/>
<path class="st2" d="M122.8,28.1c-0.1,0-0.2,0-0.2-0.2v-1.7c0-0.1,0-0.2,0.1-0.3l8.6-11.4H123c-0.1,0-0.2,0-0.2-0.2l0.4-2.3
	c0-0.1,0.1-0.2,0.2-0.2h11.5c0.1,0,0.1,0,0.1,0.1v1.8c0,0.1,0,0.2-0.1,0.3l-8.4,11.3h8.8c0.1,0,0.2,0.1,0.1,0.2l-0.4,2.3
	c0,0.1-0.1,0.2-0.2,0.2H122.8z"/>
<path class="st2" d="M140.4,27.9c0,0.1,0,0.2-0.2,0.2h-2.6c-0.1,0-0.2-0.1-0.2-0.2V10.7c0-0.1,0-0.2,0.2-0.2h2.6
	c0.1,0,0.2,0,0.2,0.2v6.1c0.9-0.7,2-1.1,3.4-1.1c1.9,0,4.1,0.9,4.1,4.9v7.3c0,0.2-0.1,0.2-0.2,0.2h-2.6c-0.1,0-0.2-0.1-0.2-0.2v-7
	c0-1.7-0.7-2.6-2.1-2.6c-0.9,0-1.7,0.3-2.4,0.9V27.9z"/>
<path class="st2" d="M160.1,25.6c0,0.5,0,1,0,1.6c0,0,0,0.1,0,0.1c-2,0.9-3.5,1.1-5.1,1.1c-2.7,0-4.8-1.3-4.8-4
	c0-2.6,2.3-3.9,5.6-3.9c0.7,0,1.3,0,1.5,0v-0.3c0-0.6-0.3-1.9-2.5-1.9c-1.2,0-2.3,0.2-3.2,0.7c-0.1,0-0.2,0-0.2-0.1v-2.1
	c0-0.1,0-0.2,0.1-0.2c1.1-0.5,2.4-0.7,3.8-0.7c3.4,0,4.9,2.1,4.9,4.9V25.6z M157.2,22.7c-0.4,0-0.8-0.1-1.4-0.1
	c-1.9,0-2.8,0.6-2.8,1.7c0,0.9,0.6,1.7,2.4,1.7c0.6,0,1.2-0.1,1.8-0.3V22.7z"/>
<path class="st2" d="M174.2,21.9c0,3.8-2.4,6.4-5.9,6.4c-4.1,0-5.9-3.2-5.9-6.3c0-3.5,2.3-6.3,6-6.3
	C172.2,15.7,174.2,18.6,174.2,21.9z M165.4,22c0,2.3,1.1,3.8,3,3.8c1.5,0,2.8-1.3,2.8-3.8c0-2-0.9-3.8-3-3.8
	C166.6,18.2,165.4,19.6,165.4,22z"/>
<path class="st4" d="M21.7,2.2c-0.2-0.5,0.3-1,0.7-0.7c4.7,3,17.2,11.2,10.3,24.5C25.9,37,10.6,34.9,4,32c-0.7-0.3-0.5-1.3,0.2-1.4
	C11.8,29.9,31.6,25.9,21.7,2.2z"/>
</svg>
